<svg width="428" height="293" xmlns="http://www.w3.org/2000/svg" xmlns:xlink="http://www.w3.org/1999/xlink" overflow="hidden"><defs><clipPath id="clip0"><rect x="426" y="120" width="428" height="293"/></clipPath></defs><g clip-path="url(#clip0)" transform="translate(-426 -120)"><path d="M67.9375 67.9374C75.1393 60.7356 79.5937 50.7865 79.5937 39.7969 79.5937 17.8176 61.7761 0 39.7969 0 17.8176 0 0 17.8176 0 39.7969 0 42.5443 0.278425 45.2267 0.808504 47.8173L2.37323 52.8582 7.28168 47.1382C12.8352 40.9313 18.5939 34.7539 24.5494 28.6268L44.0412 10.1524 28.6504 27.3438 4.89113 58.537 6.79664 62.0477C13.9485 72.6337 26.0598 79.5937 39.7969 79.5937 50.7865 79.5937 60.7356 75.1393 67.9375 67.9374Z" fill="#C8191D" fill-rule="evenodd" transform="matrix(0.75684 -0.653601 -0.653601 -0.75684 672.507 358.01)"/><path d="M200.6 0 197.383 0.199402C84.7367 9.56321 0 50.0515 0 98.5796 0 154.04 110.677 199 247.203 199L274 197.903 250.977 196.96C138.33 187.596 53.5933 147.108 53.5933 98.5796 53.5933 59.1504 109.533 25.029 190.931 8.59719L199.76 7.00239 199.839 3.47796Z" fill="#339F42" fill-rule="evenodd" transform="matrix(-1 1.22465e-16 1.22465e-16 1 853 213)"/><path d="M0 39.7968C-5.06666e-15 17.8176 17.8176-5.06666e-15 39.7968-1.01333e-14 61.776-2.02667e-14 79.5936 17.8176 79.5936 39.7968 79.5936 61.776 61.776 79.5936 39.7968 79.5936 17.8176 79.5936-2.53333e-14 61.776 0 39.7968Z" fill="#C8191D" fill-rule="evenodd" transform="matrix(-0.75684 0.653601 0.653601 0.75684 611.522 165.614)"/><path d="M247.203 0 274 1.09817 250.977 2.04196C138.33 11.4132 53.5933 51.9333 53.5933 100.5 53.5933 149.067 138.33 189.587 250.977 198.958L274 199.902 247.203 201C110.677 201 0 156.005 0 100.5 0 44.9953 110.677 0 247.203 0Z" fill="#339F42" fill-rule="evenodd" transform="matrix(1 -1.22465e-16 -1.22465e-16 -1 427 322)"/></g></svg>